<svg width="28" height="28" viewBox="0 0 28 28" fill="none" xmlns="http://www.w3.org/2000/svg">
<path d="M16.0937 2.18122L14.7062 0.79372C14.1187 0.206219 13.1687 0.206219 12.5875 0.79372L0.437497 12.9375C-0.150003 13.525 -0.150003 14.475 0.437497 15.0562L12.5875 27.2062C13.175 27.7937 14.125 27.7937 14.7062 27.2062L16.0937 25.8187C16.6875 25.225 16.675 24.2562 16.0687 23.675L8.53749 16.5H26.5C27.3312 16.5 28 15.8312 28 15V13C28 12.1687 27.3312 11.5 26.5 11.5H8.53749L16.0687 4.32497C16.6812 3.74372 16.6937 2.77497 16.0937 2.18122Z" fill="white"/>
</svg>
